G04 --- HEADER BEGIN --- *
G04 #@! TF.GenerationSoftware,LibrePCB,LibrePCB,0.1.7*
G04 #@! TF.CreationDate,2023-12-20T12:02:32*
G04 #@! TF.ProjectId,CRi-CRi Buzzer,ec579d49-da22-4424-9e15-187340a51fe6,v1*
G04 #@! TF.Part,Single*
G04 #@! TF.SameCoordinates*
G04 #@! TF.FileFunction,Legend,Top*
G04 #@! TF.FilePolarity,Positive*
%FSLAX66Y66*%
%MOMM*%
G01*
G75*
G04 --- HEADER END --- *
G04 --- APERTURE LIST BEGIN --- *
%ADD10C,0.2*%
%ADD11C,0.01*%
%ADD12C,0.1524*%
%ADD13C,0.0*%
%ADD14R,1.8X1.3*%
%AMROTATEDOCTAGON15*4,1,8,0.9128,0.378094,0.378094,0.9128,-0.378094,0.9128,-0.9128,0.378094,-0.9128,-0.378094,-0.378094,-0.9128,0.378094,-0.9128,0.9128,-0.378094,0.9128,0.378094,0.0*%
%ADD15ROTATEDOCTAGON15*%
%ADD16R,2.3X2.3*%
%ADD17C,2.3*%
%ADD18R,1.8X1.4*%
%ADD19R,1.8X3.7*%
%ADD20C,2.24*%
%ADD21R,2.24X2.24*%
G04 --- APERTURE LIST END --- *
G04 --- BOARD BEGIN --- *
D10*
G04 #@! TO.C,LED2*
X-24500000Y-5100000D02*
X-24500000Y-4500000D01*
X-23900000Y-4500000D01*
X-24500000Y-5100000D01*
D11*
G36*
X-24500000Y-5100000D02*
X-24500000Y-4500000D01*
X-23900000Y-4500000D01*
X-24500000Y-5100000D01*
G37*
D10*
X-18800000Y-9900000D02*
X-18800000Y-10200000D01*
X-19100000Y-10200000D01*
X-18800000Y-5100000D02*
X-18800000Y-4800000D01*
X-19100000Y-4800000D01*
X-24200000Y-9900000D02*
X-24200000Y-10200000D01*
X-23900000Y-10200000D01*
D12*
G04 #@! TO.C,R4*
X-12286000Y10984000D02*
X-12540000Y11238000D01*
X-12540000Y12762000D02*
X-12540000Y11238000D01*
X-11778000Y11111000D02*
X-8222000Y11111000D01*
X-11778000Y12889000D02*
X-11905000Y13016000D01*
X-7460000Y12762000D02*
X-7460000Y11238000D01*
X-12286000Y13016000D02*
X-11905000Y13016000D01*
X-7714000Y13016000D02*
X-8095000Y13016000D01*
D13*
X-7079000Y12254000D02*
X-7460000Y12254000D01*
X-7460000Y11746000D01*
X-7079000Y11746000D01*
X-7079000Y12254000D01*
D11*
G36*
X-7079000Y12254000D02*
X-7460000Y12254000D01*
X-7460000Y11746000D01*
X-7079000Y11746000D01*
X-7079000Y12254000D01*
G37*
D12*
X-8222000Y12889000D02*
X-8095000Y13016000D01*
D13*
X-12540000Y12254000D02*
X-12921000Y12254000D01*
X-12921000Y11746000D01*
X-12540000Y11746000D01*
X-12540000Y12254000D01*
D11*
G36*
X-12540000Y12254000D02*
X-12921000Y12254000D01*
X-12921000Y11746000D01*
X-12540000Y11746000D01*
X-12540000Y12254000D01*
G37*
D12*
X-12286000Y10984000D02*
X-11905000Y10984000D01*
X-11778000Y11111000D02*
X-11905000Y10984000D01*
X-7714000Y10984000D02*
X-8095000Y10984000D01*
X-7460000Y12762000D02*
X-7714000Y13016000D01*
X-8222000Y11111000D02*
X-8095000Y10984000D01*
X-7460000Y11238000D02*
X-7714000Y10984000D01*
X-11778000Y12889000D02*
X-8222000Y12889000D01*
X-12286000Y13016000D02*
X-12540000Y12762000D01*
G04 #@! TO.C,R1*
X-8214000Y-2484000D02*
X-7960000Y-2738000D01*
X-7960000Y-4262000D02*
X-7960000Y-2738000D01*
X-8722000Y-2611000D02*
X-12278000Y-2611000D01*
X-8722000Y-4389000D02*
X-8595000Y-4516000D01*
X-13040000Y-4262000D02*
X-13040000Y-2738000D01*
X-8214000Y-4516000D02*
X-8595000Y-4516000D01*
X-12786000Y-4516000D02*
X-12405000Y-4516000D01*
D13*
X-13421000Y-3754000D02*
X-13040000Y-3754000D01*
X-13040000Y-3246000D01*
X-13421000Y-3246000D01*
X-13421000Y-3754000D01*
D11*
G36*
X-13421000Y-3754000D02*
X-13040000Y-3754000D01*
X-13040000Y-3246000D01*
X-13421000Y-3246000D01*
X-13421000Y-3754000D01*
G37*
D12*
X-12278000Y-4389000D02*
X-12405000Y-4516000D01*
D13*
X-7960000Y-3754000D02*
X-7579000Y-3754000D01*
X-7579000Y-3246000D01*
X-7960000Y-3246000D01*
X-7960000Y-3754000D01*
D11*
G36*
X-7960000Y-3754000D02*
X-7579000Y-3754000D01*
X-7579000Y-3246000D01*
X-7960000Y-3246000D01*
X-7960000Y-3754000D01*
G37*
D12*
X-8214000Y-2484000D02*
X-8595000Y-2484000D01*
X-8722000Y-2611000D02*
X-8595000Y-2484000D01*
X-12786000Y-2484000D02*
X-12405000Y-2484000D01*
X-13040000Y-4262000D02*
X-12786000Y-4516000D01*
X-12278000Y-2611000D02*
X-12405000Y-2484000D01*
X-13040000Y-2738000D02*
X-12786000Y-2484000D01*
X-8722000Y-4389000D02*
X-12278000Y-4389000D01*
X-8214000Y-4516000D02*
X-7960000Y-4262000D01*
D10*
G04 #@! TO.C,J1*
X7000000Y-2800000D02*
X7000000Y4800000D01*
X14000000Y4800000D01*
X14000000Y-2800000D01*
X7000000Y-2800000D01*
G04 #@! TO.C,U1*
X3800000Y6700000D02*
X3800000Y5600000D01*
X7700000Y5600000D01*
X7700000Y6200000D01*
X3800000Y11300000D02*
X3800000Y12400000D01*
X7700000Y12400000D01*
X7700000Y11800000D01*
X7100000Y6700000D02*
G02*
X6300000Y6700000I-400000J0D01*
G01*
G02*
X7100000Y6700000I400000J0D01*
G01*
G04 #@! TO.C,LED1*
X25000000Y5100000D02*
X25000000Y4500000D01*
X24400000Y4500000D01*
X25000000Y5100000D01*
D11*
G36*
X25000000Y5100000D02*
X25000000Y4500000D01*
X24400000Y4500000D01*
X25000000Y5100000D01*
G37*
D10*
X19300000Y9900000D02*
X19300000Y10200000D01*
X19600000Y10200000D01*
X19300000Y5100000D02*
X19300000Y4800000D01*
X19600000Y4800000D01*
X24700000Y9900000D02*
X24700000Y10200000D01*
X24400000Y10200000D01*
D12*
G04 #@! TO.C,R3*
X8215133Y-5901974D02*
X8215133Y-5542764D01*
X9292764Y-4465133D02*
X8215133Y-5542764D01*
X8664146Y-6171382D02*
X11178618Y-8685854D01*
X9921382Y-4914146D02*
X9921382Y-4734541D01*
X12884867Y-8057236D02*
X11807236Y-9134867D01*
X9651974Y-4465133D02*
X9921382Y-4734541D01*
X12884867Y-7698026D02*
X12615459Y-7428618D01*
D13*
X12795064Y-8685854D02*
X12525656Y-8416446D01*
X12166446Y-8775656D01*
X12435854Y-9045064D01*
X12795064Y-8685854D01*
D11*
G36*
X12795064Y-8685854D02*
X12525656Y-8416446D01*
X12166446Y-8775656D01*
X12435854Y-9045064D01*
X12795064Y-8685854D01*
G37*
D12*
X12435854Y-7428618D02*
X12615459Y-7428618D01*
D13*
X8933554Y-4824344D02*
X8664146Y-4554936D01*
X8304936Y-4914146D01*
X8574344Y-5183554D01*
X8933554Y-4824344D01*
D11*
G36*
X8933554Y-4824344D02*
X8664146Y-4554936D01*
X8304936Y-4914146D01*
X8574344Y-5183554D01*
X8933554Y-4824344D01*
G37*
D12*
X8215133Y-5901974D02*
X8484541Y-6171382D01*
X8664146Y-6171382D02*
X8484541Y-6171382D01*
X11448026Y-9134867D02*
X11178618Y-8865459D01*
X12884867Y-8057236D02*
X12884867Y-7698026D01*
X11178618Y-8685854D02*
X11178618Y-8865459D01*
X11807236Y-9134867D02*
X11448026Y-9134867D01*
X9921382Y-4914146D02*
X12435854Y-7428618D01*
X9651974Y-4465133D02*
X9292764Y-4465133D01*
G04 #@! TO.C,R2*
X-8214000Y-184000D02*
X-7960000Y-438000D01*
X-7960000Y-1962000D02*
X-7960000Y-438000D01*
X-8722000Y-311000D02*
X-12278000Y-311000D01*
X-8722000Y-2089000D02*
X-8595000Y-2216000D01*
X-13040000Y-1962000D02*
X-13040000Y-438000D01*
X-8214000Y-2216000D02*
X-8595000Y-2216000D01*
X-12786000Y-2216000D02*
X-12405000Y-2216000D01*
D13*
X-13421000Y-1454000D02*
X-13040000Y-1454000D01*
X-13040000Y-946000D01*
X-13421000Y-946000D01*
X-13421000Y-1454000D01*
D11*
G36*
X-13421000Y-1454000D02*
X-13040000Y-1454000D01*
X-13040000Y-946000D01*
X-13421000Y-946000D01*
X-13421000Y-1454000D01*
G37*
D12*
X-12278000Y-2089000D02*
X-12405000Y-2216000D01*
D13*
X-7960000Y-1454000D02*
X-7579000Y-1454000D01*
X-7579000Y-946000D01*
X-7960000Y-946000D01*
X-7960000Y-1454000D01*
D11*
G36*
X-7960000Y-1454000D02*
X-7579000Y-1454000D01*
X-7579000Y-946000D01*
X-7960000Y-946000D01*
X-7960000Y-1454000D01*
G37*
D12*
X-8214000Y-184000D02*
X-8595000Y-184000D01*
X-8722000Y-311000D02*
X-8595000Y-184000D01*
X-12786000Y-184000D02*
X-12405000Y-184000D01*
X-13040000Y-1962000D02*
X-12786000Y-2216000D01*
X-12278000Y-311000D02*
X-12405000Y-184000D01*
X-13040000Y-438000D02*
X-12786000Y-184000D01*
X-8722000Y-2089000D02*
X-12278000Y-2089000D01*
X-8214000Y-2216000D02*
X-7960000Y-1962000D01*
D10*
G04 #@! TO.C,MCU1*
X2870000Y3920000D02*
X-12370000Y3920000D01*
X-12370000Y11540000D01*
X2870000Y11540000D01*
X2870000Y3920000D01*
X-11100000Y2650000D02*
X-11100000Y1380000D01*
X1000000Y1980000D02*
X1600000Y1380000D01*
X2200000Y1980000D01*
X1600000Y2650000D02*
X1600000Y1380000D01*
X-11700000Y1980000D02*
X-11100000Y1380000D01*
X-10500000Y1980000D01*
G04 #@! TO.C,LED2*
X-22695000Y-11900000D02*
X-23171667Y-11900000D01*
X-23171667Y-10900000D01*
X-22295000Y-11376667D02*
X-21961667Y-11376667D01*
X-21818333Y-11900000D02*
X-22295000Y-11900000D01*
X-22295000Y-10900000D01*
X-21818333Y-10900000D01*
X-21418333Y-11900000D02*
X-21418333Y-10900000D01*
X-21180555Y-10900000D01*
X-21037222Y-10947778D01*
X-20941666Y-11043333D01*
X-20895000Y-11137778D01*
X-20847222Y-11328889D01*
X-20847222Y-11471111D01*
X-20895000Y-11662222D01*
X-20941666Y-11756667D01*
X-21037222Y-11852222D01*
X-21180555Y-11900000D01*
X-21418333Y-11900000D01*
X-20399444Y-10995556D02*
X-20351666Y-10947778D01*
X-20257222Y-10900000D01*
X-20018333Y-10900000D01*
X-19923889Y-10947778D01*
X-19876111Y-10995556D01*
X-19828333Y-11090000D01*
X-19828333Y-11185556D01*
X-19876111Y-11328889D01*
X-20447222Y-11900000D01*
X-19828333Y-11900000D01*
G04 #@! TO.C,J1*
X4420000Y705000D02*
X5134444Y705000D01*
X5276667Y657222D01*
X5372222Y561667D01*
X5420000Y419445D01*
X5420000Y323889D01*
X5420000Y1676111D02*
X5420000Y1105000D01*
X5420000Y1390556D02*
X4420000Y1390556D01*
X4563333Y1295000D01*
X4657778Y1200556D01*
X4705556Y1105000D01*
G04 #@! TO.C,LED1*
X20828889Y10900000D02*
X20352222Y10900000D01*
X20352222Y11900000D01*
X21228889Y11423333D02*
X21562222Y11423333D01*
X21705556Y10900000D02*
X21228889Y10900000D01*
X21228889Y11900000D01*
X21705556Y11900000D01*
X22105556Y10900000D02*
X22105556Y11900000D01*
X22343334Y11900000D01*
X22486667Y11852222D01*
X22582223Y11756667D01*
X22628889Y11662222D01*
X22676667Y11471111D01*
X22676667Y11328889D01*
X22628889Y11137778D01*
X22582223Y11043333D01*
X22486667Y10947778D01*
X22343334Y10900000D01*
X22105556Y10900000D01*
X23647778Y10900000D02*
X23076667Y10900000D01*
X23362223Y10900000D02*
X23362223Y11900000D01*
X23266667Y11756667D01*
X23172223Y11662222D01*
X23076667Y11614444D01*
%LPC*%
D14*
G04 #@! TO.C,LED2*
X-19200000Y-9100000D03*
X-19200000Y-7500000D03*
X-19200000Y-5900000D03*
X-23800000Y-9100000D03*
X-23800000Y-5900000D03*
X-23800000Y-7500000D03*
D15*
G04 #@! TO.C,R4*
X-13810000Y12000000D03*
X-6190000Y12000000D03*
G04 #@! TO.C,R1*
X-6690000Y-3500000D03*
X-14310000Y-3500000D03*
D16*
G04 #@! TO.C,J1*
X10500000Y-750000D03*
D17*
X10500000Y2750000D03*
D18*
G04 #@! TO.C,U1*
X9000000Y6700000D03*
D19*
X2600000Y9000000D03*
D18*
X9000000Y11300000D03*
X9000000Y9000000D03*
D14*
G04 #@! TO.C,LED1*
X19700000Y9100000D03*
X19700000Y7500000D03*
X19700000Y5900000D03*
X24300000Y9100000D03*
X24300000Y5900000D03*
X24300000Y7500000D03*
D15*
G04 #@! TO.C,R3*
X7855923Y-4105923D03*
X13244077Y-9494077D03*
G04 #@! TO.C,R2*
X-6690000Y-1200000D03*
X-14310000Y-1200000D03*
D20*
G04 #@! TO.C,MCU1*
X-3480000Y9000000D03*
X-3480000Y6460000D03*
D21*
X-940000Y6460000D03*
D20*
X-6020000Y9000000D03*
X-6020000Y6460000D03*
X-8560000Y6460000D03*
X-8560000Y9000000D03*
X-940000Y9000000D03*
G04 --- BOARD END --- *
G04 #@! TF.MD5,b56f1b45dd45b6deea75a49f66022023*
M02*
