G04 --- HEADER BEGIN --- *
G04 #@! TF.GenerationSoftware,LibrePCB,LibrePCB,0.1.7*
G04 #@! TF.CreationDate,2023-12-20T12:02:32*
G04 #@! TF.ProjectId,CRi-CRi Buzzer,ec579d49-da22-4424-9e15-187340a51fe6,v1*
G04 #@! TF.Part,Single*
G04 #@! TF.SameCoordinates*
G04 #@! TF.FileFunction,Copper,L1,Top*
G04 #@! TF.FilePolarity,Positive*
%FSLAX66Y66*%
%MOMM*%
G01*
G75*
G04 --- HEADER END --- *
G04 --- APERTURE LIST BEGIN --- *
G04 #@! TA.AperFunction,SMDPad,CuDef*
%ADD10R,1.6X1.1*%
G04 #@! TA.AperFunction,ComponentPad*
%AMROTATEDOCTAGON11*4,1,8,0.8128,0.336673,0.336673,0.8128,-0.336673,0.8128,-0.8128,0.336673,-0.8128,-0.336673,-0.336673,-0.8128,0.336673,-0.8128,0.8128,-0.336673,0.8128,0.336673,0.0*%
%ADD11ROTATEDOCTAGON11*%
%ADD12R,2.1X2.1*%
%ADD13C,2.1*%
G04 #@! TA.AperFunction,SMDPad,CuDef*
%ADD14R,1.6X1.2*%
%ADD15R,1.6X3.5*%
G04 #@! TA.AperFunction,ComponentPad*
%ADD16C,2.04*%
%ADD17R,2.04X2.04*%
G04 #@! TA.AperFunction,ViaPad*
%ADD18C,1.3*%
G04 #@! TA.AperFunction,Conductor*
%ADD19C,0.5*%
%ADD20C,0.0*%
%ADD21C,0.01*%
G04 #@! TD*
G04 --- APERTURE LIST END --- *
G04 --- BOARD BEGIN --- *
D10*
G04 #@! TO.N,N6*
G04 #@! TO.C,LED2*
G04 #@! TO.P,LED2,4,G-*
X-19200000Y-9100000D03*
G04 #@! TO.N,N5*
G04 #@! TO.P,LED2,5,R-*
X-19200000Y-7500000D03*
G04 #@! TO.N,N7*
G04 #@! TO.P,LED2,6,B-*
X-19200000Y-5900000D03*
G04 #@! TO.N,N3*
G04 #@! TO.P,LED2,3,G+*
X-23800000Y-9100000D03*
G04 #@! TO.N,N4*
G04 #@! TO.P,LED2,1,B+*
X-23800000Y-5900000D03*
G04 #@! TO.N,N2*
G04 #@! TO.P,LED2,2,R+*
X-23800000Y-7500000D03*
D11*
G04 #@! TO.N,N9*
G04 #@! TO.C,R4*
G04 #@! TO.P,R4,2,2*
X-13810000Y12000000D03*
G04 #@! TO.N,N1*
G04 #@! TO.P,R4,1,1*
X-6190000Y12000000D03*
G04 #@! TO.N,VCC*
G04 #@! TO.C,R1*
G04 #@! TO.P,R1,2,2*
X-6690000Y-3500000D03*
G04 #@! TO.N,N2*
G04 #@! TO.P,R1,1,1*
X-14310000Y-3500000D03*
D12*
G04 #@! TO.N,VCC*
G04 #@! TO.C,J1*
G04 #@! TO.P,J1,1,1*
X10500000Y-750000D03*
D13*
G04 #@! TO.N,GND*
G04 #@! TO.P,J1,2,2*
X10500000Y2750000D03*
D14*
G04 #@! TO.C,U1*
G04 #@! TO.P,U1,1,GND*
X9000000Y6700000D03*
D15*
G04 #@! TO.N,N1*
G04 #@! TO.P,U1,HS,OUT*
X2600000Y9000000D03*
D14*
G04 #@! TO.N,VCC*
G04 #@! TO.P,U1,3,IN*
X9000000Y11300000D03*
G04 #@! TO.N,N1*
G04 #@! TO.P,U1,2,OUT*
X9000000Y9000000D03*
D10*
G04 #@! TO.N,N6*
G04 #@! TO.C,LED1*
G04 #@! TO.P,LED1,4,G-*
X19700000Y9100000D03*
G04 #@! TO.N,N5*
G04 #@! TO.P,LED1,5,R-*
X19700000Y7500000D03*
G04 #@! TO.N,N7*
G04 #@! TO.P,LED1,6,B-*
X19700000Y5900000D03*
G04 #@! TO.N,N3*
G04 #@! TO.P,LED1,3,G+*
X24300000Y9100000D03*
G04 #@! TO.N,N4*
G04 #@! TO.P,LED1,1,B+*
X24300000Y5900000D03*
G04 #@! TO.N,N2*
G04 #@! TO.P,LED1,2,R+*
X24300000Y7500000D03*
D11*
G04 #@! TO.N,VCC*
G04 #@! TO.C,R3*
G04 #@! TO.P,R3,2,2*
X7855923Y-4105923D03*
G04 #@! TO.N,N4*
G04 #@! TO.P,R3,1,1*
X13244077Y-9494077D03*
G04 #@! TO.N,VCC*
G04 #@! TO.C,R2*
G04 #@! TO.P,R2,2,2*
X-6690000Y-1200000D03*
G04 #@! TO.N,N3*
G04 #@! TO.P,R2,1,1*
X-14310000Y-1200000D03*
D16*
G04 #@! TO.N,N/C*
G04 #@! TO.C,MCU1*
G04 #@! TO.P,MCU1,EN,EN*
X-3480000Y9000000D03*
G04 #@! TO.N,N7*
G04 #@! TO.P,MCU1,GPIO2,GPIO2*
X-3480000Y6460000D03*
D17*
G04 #@! TO.N,GND*
G04 #@! TO.P,MCU1,GND,GND*
X-940000Y6460000D03*
D16*
G04 #@! TO.N,N/C*
G04 #@! TO.P,MCU1,RST,RST*
X-6020000Y9000000D03*
G04 #@! TO.N,N5*
G04 #@! TO.P,MCU1,GPIO0/FLASH,FLASH/GPIO0*
X-6020000Y6460000D03*
G04 #@! TO.N,N9*
G04 #@! TO.P,MCU1,GPIO3/RX,RX/GPIO3*
X-8560000Y6460000D03*
G04 #@! TO.N,N1*
G04 #@! TO.P,MCU1,3V3,3V3*
X-8560000Y9000000D03*
G04 #@! TO.N,N6*
G04 #@! TO.P,MCU1,GPIO1/TX,TX/GPIO1*
X-940000Y9000000D03*
D18*
G04 #@! TD.C*
G04 #@! TD.P*
G04 #@! TO.N,VCC*
X14000000Y6000000D03*
D19*
X12700000Y11300000D02*
X14000000Y10000000D01*
X9000000Y11300000D02*
X12700000Y11300000D01*
X14000000Y6000000D02*
X14000000Y10000000D01*
G04 #@! TO.N,N4*
X15500000Y-1500000D02*
X19000000Y2000000D01*
X14000000Y-9500000D02*
X15500000Y-8000000D01*
X-21000000Y-10000000D02*
X-20000000Y-11000000D01*
X14000000Y-9500000D02*
X12500000Y-11000000D01*
X-21000000Y-10000000D02*
X-21000000Y-7500000D01*
X-20000000Y-11000000D02*
X12500000Y-11000000D01*
X22500000Y2000000D02*
X24300000Y3800000D01*
X15500000Y-8000000D02*
X15500000Y-1500000D01*
X-23800000Y-5900000D02*
X-23800000Y-5900000D01*
X-22600000Y-5900000D02*
X-21000000Y-7500000D01*
X14000000Y-9500000D02*
X13244077Y-9494077D01*
X19000000Y2000000D02*
X22500000Y2000000D01*
X-23800000Y-5900000D02*
X-22600000Y-5900000D01*
X24300000Y3800000D02*
X24300000Y5900000D01*
D18*
G04 #@! TO.N,N5*
X-9500000Y-7500000D03*
D19*
X19700000Y7500000D02*
X19700000Y7500000D01*
X-9500000Y-7500000D02*
X11000000Y-7500000D01*
X21500000Y4500000D02*
X21500000Y7000000D01*
X13500000Y-500000D02*
X18000000Y4000000D01*
X-9500000Y-7500000D02*
X-19200000Y-7500000D01*
X21000000Y4000000D02*
X18000000Y4000000D01*
X21000000Y4000000D02*
X21500000Y4500000D01*
X13500000Y-500000D02*
X13500000Y-5000000D01*
X11000000Y-7500000D02*
X13500000Y-5000000D01*
X21500000Y7000000D02*
X21000000Y7500000D01*
X19700000Y7500000D02*
X21000000Y7500000D01*
D18*
G04 #@! TO.N,N7*
X-2500000Y-5900000D03*
D19*
X11100000Y-5900000D02*
X12500000Y-4500000D01*
X-2500000Y-5900000D02*
X11100000Y-5900000D01*
X12500000Y0D02*
X12500000Y-4500000D01*
X19700000Y5900000D02*
X18400000Y5900000D01*
X18400000Y5900000D02*
X12500000Y0D01*
X-2500000Y-5900000D02*
X-19200000Y-5900000D01*
G04 #@! TO.N,N1*
X8950000Y9050000D02*
X9000000Y9000000D01*
X-6190000Y12000000D02*
X-400000Y12000000D01*
X-400000Y12000000D02*
X2600000Y9000000D01*
X2600000Y9000000D02*
X8950000Y9050000D01*
D18*
G04 #@! TO.N,N6*
X15000000Y11500000D03*
D19*
X-19200000Y-9100000D02*
X-19100000Y-9000000D01*
X22500000Y7500000D02*
X20900000Y9100000D01*
X15000000Y11500000D02*
X17400000Y9100000D01*
X17400000Y9100000D02*
X19700000Y9100000D01*
X20900000Y9100000D02*
X19700000Y9100000D01*
X11000000Y-9000000D02*
X14500000Y-5500000D01*
X11000000Y-9000000D02*
X-19100000Y-9000000D01*
X14500000Y-1000000D02*
X14500000Y-5500000D01*
X21500000Y3000000D02*
X22500000Y4000000D01*
X21500000Y3000000D02*
X18500000Y3000000D01*
X22500000Y4000000D02*
X22500000Y7500000D01*
X14500000Y-1000000D02*
X18500000Y3000000D01*
D18*
G04 #@! TO.N,GND*
X11500000Y6700000D03*
D19*
X9000000Y6700000D02*
X11500000Y6700000D01*
X9000000Y6700000D02*
X9000000Y6700000D01*
G04 #@! TO.N,N3*
X-26500000Y-9000000D02*
X-22500000Y-13000000D01*
X20000000Y0D02*
X23500000Y0D01*
X23500000Y0D02*
X27500000Y4000000D01*
X-23200000Y-1200000D02*
X-14310000Y-1200000D01*
X14000000Y-13000000D02*
X17500000Y-9500000D01*
X-22500000Y-13000000D02*
X14000000Y-13000000D01*
X-23800000Y-9000000D02*
X-23800000Y-9100000D01*
X27500000Y7500000D02*
X25900000Y9100000D01*
X25900000Y9100000D02*
X24300000Y9100000D01*
X-26500000Y-9000000D02*
X-23800000Y-9000000D01*
X17500000Y-2500000D02*
X20000000Y0D01*
X27500000Y7500000D02*
X27500000Y4000000D01*
X17500000Y-9500000D02*
X17500000Y-2500000D01*
X-26500000Y-4500000D02*
X-23200000Y-1200000D01*
X-26500000Y-4500000D02*
X-26500000Y-9000000D01*
G04 #@! TO.N,N2*
X26000000Y7000000D02*
X25500000Y7500000D01*
X19500000Y1000000D02*
X23000000Y1000000D01*
X-22250000Y-10250000D02*
X-22250000Y-8150000D01*
X-25500000Y-7000000D02*
X-25000000Y-7500000D01*
X-23950000Y-3450000D02*
X-14310000Y-3500000D01*
X-22900000Y-7500000D02*
X-22250000Y-8150000D01*
X-25500000Y-5000000D02*
X-25500000Y-7000000D01*
X-23800000Y-7500000D02*
X-22900000Y-7500000D01*
X26000000Y4000000D02*
X26000000Y7000000D01*
X13500000Y-12000000D02*
X16500000Y-9000000D01*
X16500000Y-2000000D02*
X19500000Y1000000D01*
X-23800000Y-7500000D02*
X-25000000Y-7500000D01*
X-25500000Y-5000000D02*
X-23950000Y-3450000D01*
X-22250000Y-10250000D02*
X-20500000Y-12000000D01*
X23000000Y1000000D02*
X26000000Y4000000D01*
X24300000Y7500000D02*
X25500000Y7500000D01*
X16500000Y-9000000D02*
X16500000Y-2000000D01*
X-20500000Y-12000000D02*
X13500000Y-12000000D01*
D20*
G04 #@! TO.N,*
X4750000Y2700000D02*
X6250000Y2700000D01*
X6250000Y2300000D01*
X4750000Y2300000D01*
X4750000Y2700000D01*
D21*
G04 #@! TA.AperFunction,Conductor*
G36*
X4750000Y2700000D02*
X6250000Y2700000D01*
X6250000Y2300000D01*
X4750000Y2300000D01*
X4750000Y2700000D01*
G37*
D20*
G04 #@! TD.AperFunction*
X4750000Y-300000D02*
X5300000Y-300000D01*
X5300000Y250000D01*
X5700000Y250000D01*
X5700000Y-300000D01*
X6250000Y-300000D01*
X6250000Y-700000D01*
X5700000Y-700000D01*
X5700000Y-1250000D01*
X5300000Y-1250000D01*
X5300000Y-700000D01*
X4750000Y-700000D01*
X4750000Y-300000D01*
D21*
G04 #@! TA.AperFunction,Conductor*
G36*
X4750000Y-300000D02*
X5300000Y-300000D01*
X5300000Y250000D01*
X5700000Y250000D01*
X5700000Y-300000D01*
X6250000Y-300000D01*
X6250000Y-700000D01*
X5700000Y-700000D01*
X5700000Y-1250000D01*
X5300000Y-1250000D01*
X5300000Y-700000D01*
X4750000Y-700000D01*
X4750000Y-300000D01*
G37*
G04 --- BOARD END --- *
G04 #@! TF.MD5,37148c5ba1e5e128484fa000e59ac5cd*
M02*
