G04 --- HEADER BEGIN --- *
G04 #@! TF.GenerationSoftware,LibrePCB,LibrePCB,0.1.7*
G04 #@! TF.CreationDate,2023-12-20T12:02:32*
G04 #@! TF.ProjectId,CRi-CRi Buzzer,ec579d49-da22-4424-9e15-187340a51fe6,v1*
G04 #@! TF.Part,Single*
G04 #@! TF.SameCoordinates*
G04 #@! TF.FileFunction,Copper,L2,Bot*
G04 #@! TF.FilePolarity,Positive*
%FSLAX66Y66*%
%MOMM*%
G01*
G75*
G04 --- HEADER END --- *
G04 --- APERTURE LIST BEGIN --- *
G04 #@! TA.AperFunction,ComponentPad*
%AMROTATEDOCTAGON10*4,1,8,0.8128,0.336673,0.336673,0.8128,-0.336673,0.8128,-0.8128,0.336673,-0.8128,-0.336673,-0.336673,-0.8128,0.336673,-0.8128,0.8128,-0.336673,0.8128,0.336673,0.0*%
%ADD10ROTATEDOCTAGON10*%
G04 #@! TA.AperFunction,SMDPad,CuDef*
%AMROTATEDRECT11*20,1,1.5,-1.5,0.0,1.5,0.0,37.0*%
%ADD11ROTATEDRECT11*%
G04 #@! TA.AperFunction,ComponentPad*
%ADD12R,2.1X2.1*%
%ADD13C,2.1*%
%ADD14C,2.04*%
%ADD15R,2.04X2.04*%
G04 #@! TA.AperFunction,ViaPad*
%ADD16C,1.3*%
G04 #@! TA.AperFunction,Conductor*
%ADD17C,0.5*%
G04 #@! TD*
G04 --- APERTURE LIST END --- *
G04 --- BOARD BEGIN --- *
D10*
G04 #@! TO.N,N9*
G04 #@! TO.C,R4*
G04 #@! TO.P,R4,2,2*
X-13810000Y12000000D03*
G04 #@! TO.N,N1*
G04 #@! TO.P,R4,1,1*
X-6190000Y12000000D03*
G04 #@! TO.N,VCC*
G04 #@! TO.C,R1*
G04 #@! TO.P,R1,2,2*
X-6690000Y-3500000D03*
G04 #@! TO.N,N2*
G04 #@! TO.P,R1,1,1*
X-14310000Y-3500000D03*
D11*
G04 #@! TO.N,N9*
G04 #@! TO.C,S1*
G04 #@! TO.P,S1,2,2*
X-11946413Y6328531D03*
G04 #@! TO.N,GND*
G04 #@! TO.P,S1,1,1*
X-19453587Y671469D03*
D12*
G04 #@! TO.N,VCC*
G04 #@! TO.C,J1*
G04 #@! TO.P,J1,1,1*
X10500000Y-750000D03*
D13*
G04 #@! TO.N,GND*
G04 #@! TO.P,J1,2,2*
X10500000Y2750000D03*
D10*
G04 #@! TO.N,VCC*
G04 #@! TO.C,R3*
G04 #@! TO.P,R3,2,2*
X7855923Y-4105923D03*
G04 #@! TO.N,N4*
G04 #@! TO.P,R3,1,1*
X13244077Y-9494077D03*
G04 #@! TO.N,VCC*
G04 #@! TO.C,R2*
G04 #@! TO.P,R2,2,2*
X-6690000Y-1200000D03*
G04 #@! TO.N,N3*
G04 #@! TO.P,R2,1,1*
X-14310000Y-1200000D03*
D14*
G04 #@! TO.N,N/C*
G04 #@! TO.C,MCU1*
G04 #@! TO.P,MCU1,EN,EN*
X-3480000Y9000000D03*
G04 #@! TO.N,N7*
G04 #@! TO.P,MCU1,GPIO2,GPIO2*
X-3480000Y6460000D03*
D15*
G04 #@! TO.N,GND*
G04 #@! TO.P,MCU1,GND,GND*
X-940000Y6460000D03*
D14*
G04 #@! TO.N,N/C*
G04 #@! TO.P,MCU1,RST,RST*
X-6020000Y9000000D03*
G04 #@! TO.N,N5*
G04 #@! TO.P,MCU1,GPIO0/FLASH,FLASH/GPIO0*
X-6020000Y6460000D03*
G04 #@! TO.N,N9*
G04 #@! TO.P,MCU1,GPIO3/RX,RX/GPIO3*
X-8560000Y6460000D03*
G04 #@! TO.N,N1*
G04 #@! TO.P,MCU1,3V3,3V3*
X-8560000Y9000000D03*
G04 #@! TO.N,N6*
G04 #@! TO.P,MCU1,GPIO1/TX,TX/GPIO1*
X-940000Y9000000D03*
D16*
G04 #@! TD.C*
G04 #@! TD.P*
G04 #@! TO.N,VCC*
X14000000Y6000000D03*
D17*
X14000000Y6000000D02*
X14000000Y2750000D01*
X14000000Y2750000D02*
X10500000Y-750000D01*
X-6690000Y-3500000D02*
X-6690000Y-4810000D01*
X7375000Y-3875000D02*
X3750000Y-7500000D01*
X-6690000Y-4810000D02*
X-4000000Y-7500000D01*
X7375000Y-3875000D02*
X7855923Y-4105923D01*
X7375000Y-3875000D02*
X10500000Y-750000D01*
X3750000Y-7500000D02*
X-4000000Y-7500000D01*
X-6690000Y-3500000D02*
X-6690000Y-1200000D01*
D16*
G04 #@! TO.N,N5*
X-9500000Y-7500000D03*
D17*
X-9500000Y1480000D02*
X-9500000Y-7500000D01*
X-6020000Y4960000D02*
X-9500000Y1480000D01*
X-6020000Y6460000D02*
X-6020000Y4960000D01*
D16*
G04 #@! TO.N,N7*
X-2500000Y-5900000D03*
D17*
X-3480000Y-4920000D02*
X-3480000Y6460000D01*
X-2500000Y-5900000D02*
X-3480000Y-4920000D01*
G04 #@! TO.N,N1*
X-8560000Y9630000D02*
X-6190000Y12000000D01*
X-8560000Y9000000D02*
X-8560000Y9630000D01*
D16*
G04 #@! TO.N,N6*
X15000000Y11500000D03*
D17*
X-940000Y9000000D02*
X1560000Y11500000D01*
X1560000Y11500000D02*
X15000000Y11500000D01*
D16*
G04 #@! TO.N,GND*
X11500000Y6700000D03*
D17*
X16000000Y1000000D02*
X16000000Y7000000D01*
X11500000Y3750000D02*
X10500000Y2750000D01*
X-18500000Y-9000000D02*
X6000000Y-9000000D01*
X11500000Y6700000D02*
X11500000Y3750000D01*
X-19453587Y671469D02*
X-21500000Y-1374944D01*
X-21500000Y-1374944D02*
X-21500000Y-6000000D01*
X11500000Y6700000D02*
X-700000Y6700000D01*
X-700000Y6700000D02*
X-940000Y6460000D01*
X-21500000Y-6000000D02*
X-18500000Y-9000000D01*
X16000000Y7000000D02*
X15000000Y8000000D01*
X12800000Y8000000D02*
X15000000Y8000000D01*
X11500000Y6700000D02*
X12800000Y8000000D01*
X6000000Y-9000000D02*
X16000000Y1000000D01*
G04 #@! TO.N,N9*
X-13810000Y8192118D02*
X-11946413Y6328531D01*
X-13810000Y12000000D02*
X-13810000Y8192118D01*
X-11946413Y6328531D02*
X-8560000Y6460000D01*
G04 --- BOARD END --- *
G04 #@! TF.MD5,166f717cd11e9704bb149e13a7d9c9fa*
M02*
